<svg width="96" height="96" viewBox="0 0 96 96" fill="none" xmlns="http://www.w3.org/2000/svg">
<path d="M88.3829 55.584C88.4609 54.566 88.4999 53.538 88.4999 52.5C88.4993 43.313 85.3753 34.3993 79.6407 27.2219C73.9061 20.0446 65.9016 15.0302 56.9414 13.002" stroke="white" stroke-width="4" stroke-miterlimit="10" stroke-linecap="square"/>
<path d="M48 21C52.9706 21 57 16.9706 57 12C57 7.02944 52.9706 3 48 3C43.0294 3 39 7.02944 39 12C39 16.9706 43.0294 21 48 21Z" stroke="white" stroke-width="4" stroke-miterlimit="10" stroke-linecap="square"/>
<path d="M30.4714 16.0276C21.7184 20.2305 14.7667 27.4382 10.8829 36.3374C6.99911 45.2365 6.44177 55.2349 9.31242 64.5106" stroke="white" stroke-width="4" stroke-miterlimit="10" stroke-linecap="square"/>
<path d="M48 21C52.9706 21 57 16.9706 57 12C57 7.02944 52.9706 3 48 3C43.0294 3 39 7.02944 39 12C39 16.9706 43.0294 21 48 21Z" stroke="white" stroke-width="4" stroke-miterlimit="10" stroke-linecap="square"/>
<path d="M25.168 85.932C33.1838 91.4172 42.9056 93.8352 52.5571 92.744C62.2085 91.6528 71.1451 87.1254 77.734 79.989" stroke="white" stroke-width="4" stroke-miterlimit="10" stroke-linecap="square"/>
<path d="M12.9258 81.75C17.8963 81.75 21.9258 77.7206 21.9258 72.75C21.9258 67.7794 17.8963 63.75 12.9258 63.75C7.95522 63.75 3.92578 67.7794 3.92578 72.75C3.92578 77.7206 7.95522 81.75 12.9258 81.75Z" stroke="white" stroke-width="4" stroke-miterlimit="10" stroke-linecap="square"/>
<path d="M83.0742 81.75C88.0448 81.75 92.0742 77.7206 92.0742 72.75C92.0742 67.7794 88.0448 63.75 83.0742 63.75C78.1037 63.75 74.0742 67.7794 74.0742 72.75C74.0742 77.7206 78.1037 81.75 83.0742 81.75Z" stroke="white" stroke-width="4" stroke-miterlimit="10" stroke-linecap="square"/>
</svg>
