<svg width="96" height="96" viewBox="0 0 96 96" fill="none" xmlns="http://www.w3.org/2000/svg">
<path d="M48.002 55.5C52.1441 55.5 55.502 52.1421 55.502 48C55.502 43.8579 52.1441 40.5 48.002 40.5C43.8598 40.5 40.502 43.8579 40.502 48C40.502 52.1421 43.8598 55.5 48.002 55.5Z" stroke="#F4F4F7" stroke-width="4" stroke-miterlimit="10"/>
<path d="M48.002 18C52.1441 18 55.502 14.6421 55.502 10.5C55.502 6.35786 52.1441 3 48.002 3C43.8598 3 40.502 6.35786 40.502 10.5C40.502 14.6421 43.8598 18 48.002 18Z" stroke="#F4F4F7" stroke-width="4" stroke-miterlimit="10"/>
<path d="M15 36C19.1421 36 22.5 32.6421 22.5 28.5C22.5 24.3579 19.1421 21 15 21C10.8579 21 7.5 24.3579 7.5 28.5C7.5 32.6421 10.8579 36 15 36Z" stroke="#F4F4F7" stroke-width="4" stroke-miterlimit="10" stroke-linecap="square"/>
<path d="M81 36C85.1421 36 88.5 32.6421 88.5 28.5C88.5 24.3579 85.1421 21 81 21C76.8579 21 73.5 24.3579 73.5 28.5C73.5 32.6421 76.8579 36 81 36Z" stroke="#F4F4F7" stroke-width="4" stroke-miterlimit="10" stroke-linecap="square"/>
<path d="M15 75C19.1421 75 22.5 71.6421 22.5 67.5C22.5 63.3579 19.1421 60 15 60C10.8579 60 7.5 63.3579 7.5 67.5C7.5 71.6421 10.8579 75 15 75Z" stroke="#F4F4F7" stroke-width="4" stroke-miterlimit="10"/>
<path d="M81 75C85.1421 75 88.5 71.6421 88.5 67.5C88.5 63.3579 85.1421 60 81 60C76.8579 60 73.5 63.3579 73.5 67.5C73.5 71.6421 76.8579 75 81 75Z" stroke="#F4F4F7" stroke-width="4" stroke-miterlimit="10"/>
<path d="M47.998 93C52.1402 93 55.498 89.6421 55.498 85.5C55.498 81.3579 52.1402 78 47.998 78C43.8559 78 40.498 81.3579 40.498 85.5C40.498 89.6421 43.8559 93 47.998 93Z" stroke="#F4F4F7" stroke-width="4" stroke-miterlimit="10" stroke-linecap="square"/>
<path d="M48 18V33" stroke="#F4F4F7" stroke-width="4" stroke-miterlimit="10" stroke-linecap="square"/>
<path d="M48 63V78" stroke="#F4F4F7" stroke-width="4" stroke-miterlimit="10" stroke-linecap="square"/>
<path d="M28.1641 21.3196L41.4211 14.0896" stroke="#F4F4F7" stroke-width="4" stroke-miterlimit="10" stroke-linecap="square"/>
<path d="M34.8335 78.3195L21.584 71.0925" stroke="#F4F4F7" stroke-width="4" stroke-miterlimit="10" stroke-linecap="square"/>
<path d="M15 52.5V36" stroke="#F4F4F7" stroke-width="4" stroke-miterlimit="10" stroke-linecap="square"/>
<path d="M81 43.5V60" stroke="#F4F4F7" stroke-width="4" stroke-miterlimit="10" stroke-linecap="square"/>
<path d="M74.4155 24.9076L61.166 17.6821" stroke="#F4F4F7" stroke-width="4" stroke-miterlimit="10" stroke-linecap="square"/>
<path d="M35.1046 40.38L21.4531 32.313" stroke="#F4F4F7" stroke-width="4" stroke-miterlimit="10" stroke-linecap="square"/>
<path d="M35.1046 55.6201L21.4531 63.6871" stroke="#F4F4F7" stroke-width="4" stroke-miterlimit="10" stroke-linecap="square"/>
<path d="M60.8984 40.3785L74.5469 32.313" stroke="#F4F4F7" stroke-width="4" stroke-miterlimit="10" stroke-linecap="square"/>
<path d="M74.5469 63.6871L60.8984 55.6216" stroke="#F4F4F7" stroke-width="4" stroke-miterlimit="10" stroke-linecap="square"/>
<path d="M67.8345 74.6807L54.582 81.9077" stroke="#F4F4F7" stroke-width="4" stroke-miterlimit="10" stroke-linecap="square"/>
</svg>
