<svg width="96" height="96" viewBox="0 0 96 96" fill="none" xmlns="http://www.w3.org/2000/svg">
<path d="M48 93C72.8528 93 93 72.8528 93 48C93 23.1472 72.8528 3 48 3C23.1472 3 3 23.1472 3 48C3 72.8528 23.1472 93 48 93Z" stroke="#F4F4F7" stroke-width="4" stroke-miterlimit="10" stroke-linecap="square"/>
<path d="M69 27L55.5 55.5L27 69L40.5 40.5L69 27Z" stroke="#F4F4F7" stroke-width="4" stroke-miterlimit="10" stroke-linecap="square"/>
<path d="M48 49.5C48.8284 49.5 49.5 48.8284 49.5 48C49.5 47.1716 48.8284 46.5 48 46.5C47.1716 46.5 46.5 47.1716 46.5 48C46.5 48.8284 47.1716 49.5 48 49.5Z" stroke="#F4F4F7" stroke-width="4" stroke-miterlimit="10" stroke-linecap="square"/>
<path d="M48 49.5C48.8284 49.5 49.5 48.8284 49.5 48C49.5 47.1716 48.8284 46.5 48 46.5C47.1716 46.5 46.5 47.1716 46.5 48C46.5 48.8284 47.1716 49.5 48 49.5Z" fill="#F4F4F7"/>
</svg>
