<svg width="96" height="96" viewBox="0 0 96 96" fill="none" xmlns="http://www.w3.org/2000/svg">
<path d="M48 23.998V71.998" stroke="#F4F4F7" stroke-width="4" stroke-miterlimit="10" stroke-linecap="square"/>
<path d="M58.4002 30.3981C55.0527 29.2657 51.5337 28.7241 48.0007 28.7976C42.4807 28.7976 35.2012 31.1976 35.2012 37.5981C35.2012 49.5981 60.8002 44.0481 60.8002 56.7981C60.8002 63.1416 54.5122 65.5971 48.0007 65.5971C43.6121 65.7154 39.2487 64.8973 35.2012 63.1971" stroke="#F4F4F7" stroke-width="4" stroke-miterlimit="10" stroke-linecap="square"/>
<path d="M88.47 32.0151C84.7551 22.5896 77.8668 14.7565 68.9936 9.86708C60.1204 4.97769 49.8189 3.33876 39.8664 5.23307C29.914 7.12737 20.9348 12.4361 14.4782 20.2433C8.02167 28.0505 4.49263 37.8665 4.50001 47.9976" stroke="#F4F4F7" stroke-width="4" stroke-miterlimit="10"/>
<path d="M7.5293 63.9805C11.2442 73.406 18.1325 81.2392 27.0057 86.1286C35.8789 91.018 46.1804 92.6569 56.1329 90.7626C66.0853 88.8683 75.0645 83.5595 81.5211 75.7523C87.9776 67.9451 91.5067 58.1292 91.4993 47.998" stroke="#F4F4F7" stroke-width="4" stroke-miterlimit="10"/>
<path d="M8.8425 85.4912L7.5 63.9707L28.5675 71.2952" stroke="#F4F4F7" stroke-width="4" stroke-miterlimit="10" stroke-linecap="square"/>
<path d="M87.1566 10.5037L88.4991 32.0242L67.4316 24.6997" stroke="#F4F4F7" stroke-width="4" stroke-miterlimit="10" stroke-linecap="square"/>
</svg>
