<svg width="96" height="96" viewBox="0 0 96 96" fill="none" xmlns="http://www.w3.org/2000/svg">
<path d="M71.1989 37.1871C69.3539 36.7981 67.4204 36.4561 65.3984 36.1611" stroke="#F4F4F7" stroke-width="4" stroke-miterlimit="10" stroke-linecap="square"/>
<path d="M50.8986 34.9872C49.9401 34.9662 48.9741 34.9512 47.9991 34.9512C47.0241 34.9512 46.0581 34.9662 45.0996 34.9872" stroke="#F4F4F7" stroke-width="4" stroke-miterlimit="10" stroke-linecap="square"/>
<path d="M30.6013 36.1611C28.5823 36.4551 26.6488 36.7971 24.8008 37.1871" stroke="#F4F4F7" stroke-width="4" stroke-miterlimit="10" stroke-linecap="square"/>
<path d="M84.2505 41.4346C85.5228 42.0592 86.7345 42.8004 87.87 43.6486C90.1995 45.4246 91.5 47.3851 91.5 49.4491C91.5 57.4561 72.024 63.9481 48 63.9481C23.976 63.9481 4.5 57.4561 4.5 49.4491C4.5 47.3851 5.8005 45.4246 8.13 43.6486C9.26555 42.8004 10.4772 42.0592 11.7495 41.4346" stroke="#F4F4F7" stroke-width="4" stroke-miterlimit="10" stroke-linecap="square"/>
<path d="M35.7384 24.7998C35.3484 26.6448 35.0059 28.5783 34.7109 30.6003" stroke="#F4F4F7" stroke-width="4" stroke-miterlimit="10" stroke-linecap="square"/>
<path d="M33.534 45.0996C33.513 46.0581 33.498 47.0241 33.498 47.9991C33.498 48.9741 33.513 49.9401 33.534 50.8986" stroke="#F4F4F7" stroke-width="4" stroke-miterlimit="10" stroke-linecap="square"/>
<path d="M34.7109 65.3994C35.0049 67.4184 35.3474 69.3519 35.7384 71.1999" stroke="#F4F4F7" stroke-width="4" stroke-miterlimit="10" stroke-linecap="square"/>
<path d="M39.9844 11.7495C40.6096 10.4775 41.3507 9.2659 42.1984 8.13C43.9759 5.8005 45.9364 4.5 47.9989 4.5C56.0074 4.5 62.4994 23.976 62.4994 48C62.4994 72.024 56.0074 91.5 47.9989 91.5C45.9364 91.5 43.9759 90.1995 42.1984 87.87C41.3507 86.7341 40.6096 85.5225 39.9844 84.2505" stroke="#F4F4F7" stroke-width="4" stroke-miterlimit="10" stroke-linecap="square"/>
<path d="M48 91.5C72.0244 91.5 91.5 72.0244 91.5 48C91.5 23.9756 72.0244 4.5 48 4.5C23.9756 4.5 4.5 23.9756 4.5 48C4.5 72.0244 23.9756 91.5 48 91.5Z" stroke="#F4F4F7" stroke-width="4" stroke-miterlimit="10" stroke-linecap="square"/>
</svg>
