<svg width="96" height="96" viewBox="0 0 96 96" fill="none" xmlns="http://www.w3.org/2000/svg">
<path d="M48 91.5C72.0244 91.5 91.5 72.0244 91.5 48C91.5 23.9756 72.0244 4.5 48 4.5C23.9756 4.5 4.5 23.9756 4.5 48C4.5 72.0244 23.9756 91.5 48 91.5Z" stroke="white" stroke-width="4" stroke-miterlimit="10" stroke-linecap="square"/>
<path d="M48 58.5C53.799 58.5 58.5 53.799 58.5 48C58.5 42.201 53.799 37.5 48 37.5C42.201 37.5 37.5 42.201 37.5 48C37.5 53.799 42.201 58.5 48 58.5Z" stroke="white" stroke-width="4" stroke-miterlimit="10" stroke-linecap="square"/>
<path d="M48 75C62.9117 75 75 62.9117 75 48C75 33.0883 62.9117 21 48 21C33.0883 21 21 33.0883 21 48C21 62.9117 33.0883 75 48 75Z" stroke="white" stroke-width="4" stroke-miterlimit="10" stroke-linecap="square"/>
</svg>
