<svg width="96" height="96" viewBox="0 0 96 96" fill="none" xmlns="http://www.w3.org/2000/svg">
<path d="M79.5 93.0028V70.1308C84.1532 65.6665 87.6268 60.1181 89.6099 53.9823C91.593 47.8464 92.0238 41.3145 90.8636 34.9714C89.7034 28.6282 86.9884 22.6718 82.9618 17.6351C78.9352 12.5985 73.7225 8.63883 67.7904 6.11067C61.8583 3.58251 55.3918 2.56471 48.9699 3.14838C42.548 3.73205 36.371 5.89898 30.9919 9.45519C25.6128 13.0114 21.1994 17.8459 18.1468 23.526C15.0942 29.206 13.4976 35.5544 13.5 42.0028V46.5028L4.5 63.0028L13.5 67.5028V84.0028C13.5 86.3897 14.4482 88.6789 16.136 90.3667C17.8239 92.0546 20.1131 93.0028 22.5 93.0028H42C47.5695 93.0028 52.911 90.7903 56.8492 86.852C60.7875 82.9138 63 77.5723 63 72.0028V49.5028" stroke="#111111" stroke-width="4" stroke-miterlimit="10" stroke-linecap="square"/>
<path d="M63 49.5C67.1421 49.5 70.5 46.1421 70.5 42C70.5 37.8579 67.1421 34.5 63 34.5C58.8579 34.5 55.5 37.8579 55.5 42C55.5 46.1421 58.8579 49.5 63 49.5Z" stroke="#111111" stroke-width="4" stroke-miterlimit="10" stroke-linecap="square"/>
<path d="M75.7266 54.7284C79.102 51.3528 80.9982 46.7746 80.9982 42.0009C80.9982 37.2272 79.102 32.6491 75.7266 29.2734" stroke="#111111" stroke-width="4" stroke-miterlimit="10" stroke-linecap="square"/>
<path d="M50.2717 54.7284C46.8963 51.3528 45 46.7746 45 42.0009C45 37.2272 46.8963 32.6491 50.2717 29.2734" stroke="#111111" stroke-width="4" stroke-miterlimit="10" stroke-linecap="square"/>
<path d="M29.61 46.5C28.6446 45.1107 27.3573 43.9757 25.8579 43.1921C24.3586 42.4085 22.6918 41.9995 21 42" stroke="#111111" stroke-width="4" stroke-miterlimit="10" stroke-linecap="square"/>
</svg>
