<svg width="96" height="96" viewBox="0 0 96 96" fill="none" xmlns="http://www.w3.org/2000/svg">
<path d="M18 66H6V85.5H18V66Z" stroke="#F4F4F7" stroke-width="4" stroke-miterlimit="10" stroke-linecap="square"/>
<path d="M66 64.5H54V85.5H66V64.5Z" stroke="#F4F4F7" stroke-width="4" stroke-miterlimit="10" stroke-linecap="square"/>
<path d="M42 40.5H30V85.5H42V40.5Z" stroke="#F4F4F7" stroke-width="4" stroke-miterlimit="10" stroke-linecap="square"/>
<path d="M90 40.5H78V85.5H90V40.5Z" stroke="#F4F4F7" stroke-width="4" stroke-miterlimit="10" stroke-linecap="square"/>
<path d="M12 46.5C15.3137 46.5 18 43.8137 18 40.5C18 37.1863 15.3137 34.5 12 34.5C8.68629 34.5 6 37.1863 6 40.5C6 43.8137 8.68629 46.5 12 46.5Z" stroke="#F4F4F7" stroke-width="4" stroke-miterlimit="10"/>
<path d="M60 46.5C63.3137 46.5 66 43.8137 66 40.5C66 37.1863 63.3137 34.5 60 34.5C56.6863 34.5 54 37.1863 54 40.5C54 43.8137 56.6863 46.5 60 46.5Z" stroke="#F4F4F7" stroke-width="4" stroke-miterlimit="10"/>
<path d="M36 22.5C39.3137 22.5 42 19.8137 42 16.5C42 13.1863 39.3137 10.5 36 10.5C32.6863 10.5 30 13.1863 30 16.5C30 19.8137 32.6863 22.5 36 22.5Z" stroke="#F4F4F7" stroke-width="4" stroke-miterlimit="10"/>
<path d="M84 22.5C87.3137 22.5 90 19.8137 90 16.5C90 13.1863 87.3137 10.5 84 10.5C80.6863 10.5 78 13.1863 78 16.5C78 19.8137 80.6863 22.5 84 22.5Z" stroke="#F4F4F7" stroke-width="4" stroke-miterlimit="10"/>
<path d="M16.2422 36.2582L31.7582 20.7422" stroke="#F4F4F7" stroke-width="4" stroke-miterlimit="10"/>
<path d="M55.7582 36.2582L40.2422 20.7422" stroke="#F4F4F7" stroke-width="4" stroke-miterlimit="10"/>
<path d="M64.2422 36.2582L79.7582 20.7422" stroke="#F4F4F7" stroke-width="4" stroke-miterlimit="10"/>
</svg>
